<svg width="32" height="32" viewBox="0 0 32 32" fill="none" xmlns="http://www.w3.org/2000/svg">
<path fill-rule="evenodd" clip-rule="evenodd" d="M19.9992 9.33335H22.6659V16C22.6659 19.2946 22.9185 20 23.9992 20C25.7383 20 26.6659 19.1776 26.6659 16C26.6659 8.94756 23.1286 5.33335 15.9994 5.33335C11.3807 5.33393 7.28705 8.30704 5.85771 12.699C4.42836 17.091 5.98806 21.904 9.72177 24.6228C13.4555 27.3416 18.5148 27.3486 22.256 24.64L23.8198 26.8C19.1434 30.1857 12.8192 30.177 8.15202 26.7785C3.48489 23.38 1.53526 17.3638 3.32195 11.8738C5.10863 6.3838 10.2257 2.66741 15.9992 2.66669C24.6144 2.66669 29.3326 7.48748 29.3326 16C29.3326 20.7265 27.1444 22.6667 23.9992 22.6667C22.2075 22.6667 21.1821 22.089 20.6191 20.8067C19.4208 21.9587 17.7927 22.667 15.9992 22.667C12.3173 22.667 9.33254 19.6822 9.33254 16.0003C9.33254 12.3184 12.3173 9.33362 15.9992 9.33362C17.5 9.33362 18.885 9.82955 19.9992 10.6665V9.33335ZM19.9992 15.9999C19.9992 18.2091 18.2084 19.9999 15.9992 19.9999C13.7901 19.9999 11.9992 18.2091 11.9992 15.9999C11.9992 13.7908 13.7901 11.9999 15.9992 11.9999C18.2084 11.9999 19.9992 13.7908 19.9992 15.9999Z" fill="#010101"/>
</svg>
