<svg width="31" height="32" viewBox="0 0 31 32" fill="none" xmlns="http://www.w3.org/2000/svg">
<path fill-rule="evenodd" clip-rule="evenodd" d="M5.16659 2.66669H25.8333C27.26 2.66669 28.4166 3.86059 28.4166 5.33335V26.6667C28.4166 28.1394 27.26 29.3334 25.8333 29.3334H5.16659C3.73985 29.3334 2.58325 28.1394 2.58325 26.6667V5.33335C2.58325 3.86059 3.73985 2.66669 5.16659 2.66669ZM5.1666 5.33336V26.6667H25.8333V5.33336H5.1666ZM14.3801 16.0062H16.7916V24.0003H19.3749V16.0062H21.9355V13.3395H19.3749V12.0003C19.3749 11.2639 19.9532 10.667 20.6666 10.667H21.9582V8.0003H20.6666C18.5265 8.0003 16.7916 9.79116 16.7916 12.0003V13.3395H14.3801V16.0062Z" fill="#010101"/>
</svg>
