<svg width="29" height="32" viewBox="0 0 29 32" fill="none" xmlns="http://www.w3.org/2000/svg">
<path fill-rule="evenodd" clip-rule="evenodd" d="M4.83341 2.66669H24.1667C25.5014 2.66669 26.5834 3.86059 26.5834 5.33335V26.6667C26.5834 28.1394 25.5014 29.3334 24.1667 29.3334H4.83341C3.49873 29.3334 2.41675 28.1394 2.41675 26.6667V5.33335C2.41675 3.86059 3.49873 2.66669 4.83341 2.66669ZM4.83342 5.33336V26.6667H24.1667V5.33336H4.83342ZM15.7084 11.9999C15.0828 11.9999 14.4218 12.2109 13.8381 12.6028L13.2917 11.9999H12.0834V21.3333H14.5001V15.9999C14.5001 15.2323 15.2178 14.6666 15.7084 14.6666H16.9167C17.4074 14.6666 18.1251 15.2323 18.1251 15.9999V21.3333H20.5417V15.9999C20.5417 13.5295 18.6011 11.9999 16.9167 11.9999H15.7084ZM9.66675 10.667C10.3341 10.667 10.8751 10.07 10.8751 9.33364C10.8751 8.59726 10.3341 8.0003 9.66675 8.0003C8.99941 8.0003 8.45842 8.59726 8.45842 9.33364C8.45842 10.07 8.99941 10.667 9.66675 10.667ZM8.45842 11.9999V21.3333H10.8751V11.9999H8.45842Z" fill="#010101"/>
</svg>
