<svg width="21" height="23" viewBox="0 0 21 23" fill="none" xmlns="http://www.w3.org/2000/svg">
<path fill-rule="evenodd" clip-rule="evenodd" d="M3.5 1.86133H17.5C18.4665 1.86133 19.25 2.69467 19.25 3.72266V18.6133C19.25 19.6413 18.4665 20.4746 17.5 20.4746H3.5C2.5335 20.4746 1.75 19.6413 1.75 18.6133V3.72266C1.75 2.69467 2.5335 1.86133 3.5 1.86133ZM3.5 3.72266V18.6133H17.5V3.72266H3.5ZM11.375 8.37587C10.922 8.37587 10.4433 8.52316 10.0206 8.79667L9.625 8.37587H8.75V14.8905H10.5V11.1679C10.5 10.632 11.0197 10.2372 11.375 10.2372H12.25C12.6053 10.2372 13.125 10.632 13.125 11.1679V14.8905H14.875V11.1679C14.875 9.44351 13.4697 8.37587 12.25 8.37587H11.375ZM7 7.44549C7.48325 7.44549 7.875 7.02882 7.875 6.51483C7.875 6.00083 7.48325 5.58416 7 5.58416C6.51675 5.58416 6.125 6.00083 6.125 6.51483C6.125 7.02882 6.51675 7.44549 7 7.44549ZM6.125 8.37587V14.8905H7.875V8.37587H6.125Z" fill="white"/>
</svg>
