<svg width="22" height="23" viewBox="0 0 22 23" fill="none" xmlns="http://www.w3.org/2000/svg">
<path fill-rule="evenodd" clip-rule="evenodd" d="M3.66671 1.86133H18.3334C19.3459 1.86133 20.1667 2.69467 20.1667 3.72266V18.6133C20.1667 19.6413 19.3459 20.4746 18.3334 20.4746H3.66671C2.65419 20.4746 1.83337 19.6413 1.83337 18.6133V3.72266C1.83337 2.69467 2.65419 1.86133 3.66671 1.86133ZM3.6667 3.72266V18.6133H18.3334V3.72266H3.6667ZM10.2053 11.1722H11.9167V16.7521H13.75V11.1722H15.5673V9.31091H13.75V8.37615C13.75 7.86216 14.1604 7.44549 14.6667 7.44549H15.5834V5.58416H14.6667C13.1479 5.58416 11.9167 6.83418 11.9167 8.37615V9.31091H10.2053V11.1722Z" fill="white"/>
</svg>
