<svg width="22" height="23" viewBox="0 0 22 23" fill="none" xmlns="http://www.w3.org/2000/svg">
<path fill-rule="evenodd" clip-rule="evenodd" d="M13.7495 6.51465H15.5828V11.168C15.5828 13.4676 15.7565 13.96 16.4995 13.96C17.6951 13.96 18.3328 13.3859 18.3328 11.168C18.3328 6.24536 15.901 3.72266 10.9996 3.72266C7.82425 3.72306 5.00988 5.79828 4.0272 8.86388C3.04453 11.9295 4.11682 15.2889 6.68375 17.1866C9.25067 19.0844 12.729 19.0892 15.301 17.1987L16.3761 18.7063C13.1611 21.0696 8.8132 21.0635 5.60455 18.6913C2.39589 16.3191 1.05552 12.1199 2.28387 8.28786C3.51221 4.45586 7.03018 1.86183 10.9995 1.86133C16.9224 1.86133 20.1662 5.22624 20.1662 11.168C20.1662 14.4671 18.6618 15.8213 16.4995 15.8213C15.2677 15.8213 14.5627 15.4181 14.1756 14.523C13.3518 15.3271 12.2325 15.8214 10.9995 15.8214C8.46819 15.8214 6.41616 13.7381 6.41616 11.1681C6.41616 8.59817 8.46819 6.51481 10.9995 6.51481C12.0313 6.51481 12.9835 6.86097 13.7495 7.44514V6.51465ZM13.7495 11.1679C13.7495 12.7098 12.5183 13.9599 10.9995 13.9599C9.48072 13.9599 8.2495 12.7098 8.2495 11.1679C8.2495 9.62589 9.48072 8.37587 10.9995 8.37587C12.5183 8.37587 13.7495 9.62589 13.7495 11.1679Z" fill="white"/>
</svg>
