<svg width="23" height="15" viewBox="0 0 23 15" fill="none" xmlns="http://www.w3.org/2000/svg">
<path d="M23 0.00012207H0V15H23V0.00012207Z" fill="#F0F0F0"/>
<path d="M12.9375 0H10.0625V6.09361H0V8.90606H10.0625V14.9997H12.9375V8.90606H23V6.09361H12.9375V0Z" fill="#D80027"/>
<path d="M17.6896 10.1085L23 12.9946V10.1085H17.6896Z" fill="#0052B4"/>
<path d="M14 10.1085L23 14.9997V13.6165L16.5451 10.1085H14Z" fill="#0052B4"/>
<path d="M20.6027 14.9997L14 11.411V14.9997H20.6027Z" fill="#0052B4"/>
<path d="M14 10.1085L23 14.9997V13.6165L16.5451 10.1085H14Z" fill="#F0F0F0"/>
<path d="M14 10.1085L23 14.9997V13.6165L16.5451 10.1085H14Z" fill="#D80027"/>
<path d="M4.05829 10.1084L0 12.3139V10.1084H4.05829Z" fill="#0052B4"/>
<path d="M9.00005 10.7304V14.9996H1.14514L9.00005 10.7304Z" fill="#0052B4"/>
<path d="M6.45496 10.1085L0 13.6165V14.9997L9.00001 10.1085H6.45496Z" fill="#D80027"/>
<path d="M5.31044 4.8912L0 2.0051V4.8912H5.31044Z" fill="#0052B4"/>
<path d="M9.00001 4.8912L0 0V1.38311L6.45496 4.8912H9.00001Z" fill="#0052B4"/>
<path d="M2.39734 0L9.00005 3.58868V0H2.39734Z" fill="#0052B4"/>
<path d="M9.00001 4.8912L0 0V1.38311L6.45496 4.8912H9.00001Z" fill="#F0F0F0"/>
<path d="M9.00001 4.8912L0 0V1.38311L6.45496 4.8912H9.00001Z" fill="#D80027"/>
<path d="M18.9418 4.89129L23.0001 2.68571V4.89129H18.9418Z" fill="#0052B4"/>
<path d="M14 4.2693V4.57764e-05H21.8549L14 4.2693Z" fill="#0052B4"/>
<path d="M16.5451 4.8912L23 1.38311V0L14 4.8912H16.5451Z" fill="#D80027"/>
</svg>
