<svg width="182" height="51" viewBox="0 0 182 51" fill="none" xmlns="http://www.w3.org/2000/svg">
<path d="M74.992 17.2422H78.88V34.0422H74.992V17.2422Z" fill="white"/>
<path d="M90.451 20.9382C92.051 20.9382 93.339 21.4182 94.315 22.3782C95.307 23.3382 95.803 24.7622 95.803 26.6502V34.0422H92.059V27.2262C92.059 26.2022 91.835 25.4422 91.387 24.9462C90.939 24.4342 90.291 24.1782 89.443 24.1782C88.499 24.1782 87.747 24.4742 87.187 25.0662C86.627 25.6422 86.347 26.5062 86.347 27.6582V34.0422H82.603V21.1302H86.179V22.6422C86.675 22.0982 87.291 21.6822 88.027 21.3942C88.763 21.0902 89.571 20.9382 90.451 20.9382Z" fill="white"/>
<path d="M107.525 33.4182C107.157 33.6902 106.701 33.8982 106.157 34.0422C105.629 34.1702 105.069 34.2342 104.477 34.2342C102.941 34.2342 101.749 33.8422 100.901 33.0582C100.069 32.2742 99.6528 31.1222 99.6528 29.6022V24.2982H97.6608V21.4182H99.6528V18.2742H103.397V21.4182H106.613V24.2982H103.397V29.5542C103.397 30.0982 103.533 30.5222 103.805 30.8262C104.093 31.1142 104.493 31.2582 105.005 31.2582C105.597 31.2582 106.101 31.0982 106.517 30.7782L107.525 33.4182Z" fill="white"/>
<path d="M121.876 27.6342C121.876 27.6822 121.852 28.0182 121.804 28.6422H112.036C112.212 29.4422 112.628 30.0742 113.284 30.5382C113.94 31.0022 114.756 31.2342 115.732 31.2342C116.404 31.2342 116.996 31.1382 117.508 30.9462C118.036 30.7382 118.524 30.4182 118.972 29.9862L120.964 32.1462C119.748 33.5382 117.972 34.2342 115.636 34.2342C114.18 34.2342 112.892 33.9542 111.772 33.3942C110.652 32.8182 109.788 32.0262 109.18 31.0182C108.572 30.0102 108.268 28.8662 108.268 27.5862C108.268 26.3222 108.564 25.1862 109.156 24.1782C109.764 23.1542 110.588 22.3622 111.628 21.8022C112.684 21.2262 113.86 20.9382 115.156 20.9382C116.42 20.9382 117.564 21.2102 118.588 21.7542C119.612 22.2982 120.412 23.0822 120.988 24.1062C121.58 25.1142 121.876 26.2902 121.876 27.6342ZM115.18 23.7702C114.332 23.7702 113.62 24.0102 113.044 24.4902C112.468 24.9702 112.116 25.6262 111.988 26.4582H118.348C118.22 25.6422 117.868 24.9942 117.292 24.5142C116.716 24.0182 116.012 23.7702 115.18 23.7702Z" fill="white"/>
<path d="M127.945 22.8342C128.393 22.2102 128.993 21.7382 129.745 21.4182C130.513 21.0982 131.393 20.9382 132.385 20.9382V24.3942C131.969 24.3622 131.689 24.3462 131.545 24.3462C130.473 24.3462 129.633 24.6502 129.025 25.2582C128.417 25.8502 128.113 26.7462 128.113 27.9462V34.0422H124.369V21.1302H127.945V22.8342Z" fill="white"/>
<path d="M145.852 25.3782H149.404V32.1942C148.492 32.8822 147.436 33.4102 146.236 33.7782C145.036 34.1462 143.828 34.3302 142.612 34.3302C140.868 34.3302 139.3 33.9622 137.908 33.2262C136.516 32.4742 135.42 31.4422 134.62 30.1302C133.836 28.8022 133.444 27.3062 133.444 25.6422C133.444 23.9782 133.836 22.4902 134.62 21.1782C135.42 19.8502 136.524 18.8182 137.932 18.0822C139.34 17.3302 140.924 16.9542 142.684 16.9542C144.156 16.9542 145.492 17.2022 146.692 17.6982C147.892 18.1942 148.9 18.9142 149.716 19.8582L147.22 22.1622C146.02 20.8982 144.572 20.2662 142.876 20.2662C141.804 20.2662 140.852 20.4902 140.02 20.9382C139.188 21.3862 138.54 22.0182 138.076 22.8342C137.612 23.6502 137.38 24.5862 137.38 25.6422C137.38 26.6822 137.612 27.6102 138.076 28.4262C138.54 29.2422 139.18 29.8822 139.996 30.3462C140.828 30.7942 141.772 31.0182 142.828 31.0182C143.948 31.0182 144.956 30.7782 145.852 30.2982V25.3782Z" fill="white"/>
<path d="M165.399 27.6342C165.399 27.6822 165.375 28.0182 165.327 28.6422H155.559C155.735 29.4422 156.151 30.0742 156.807 30.5382C157.463 31.0022 158.279 31.2342 159.255 31.2342C159.927 31.2342 160.519 31.1382 161.031 30.9462C161.559 30.7382 162.047 30.4182 162.495 29.9862L164.487 32.1462C163.271 33.5382 161.495 34.2342 159.159 34.2342C157.703 34.2342 156.415 33.9542 155.295 33.3942C154.175 32.8182 153.311 32.0262 152.703 31.0182C152.095 30.0102 151.791 28.8662 151.791 27.5862C151.791 26.3222 152.087 25.1862 152.679 24.1782C153.287 23.1542 154.111 22.3622 155.151 21.8022C156.207 21.2262 157.383 20.9382 158.679 20.9382C159.943 20.9382 161.087 21.2102 162.111 21.7542C163.135 22.2982 163.935 23.0822 164.511 24.1062C165.103 25.1142 165.399 26.2902 165.399 27.6342ZM158.703 23.7702C157.855 23.7702 157.143 24.0102 156.567 24.4902C155.991 24.9702 155.639 25.6262 155.511 26.4582H161.871C161.743 25.6422 161.391 24.9942 160.815 24.5142C160.239 24.0182 159.535 23.7702 158.703 23.7702Z" fill="white"/>
<path d="M174.036 34.2342C172.676 34.2342 171.452 33.9542 170.364 33.3942C169.292 32.8182 168.452 32.0262 167.844 31.0182C167.236 30.0102 166.932 28.8662 166.932 27.5862C166.932 26.3062 167.236 25.1622 167.844 24.1542C168.452 23.1462 169.292 22.3622 170.364 21.8022C171.452 21.2262 172.676 20.9382 174.036 20.9382C175.396 20.9382 176.612 21.2262 177.684 21.8022C178.756 22.3622 179.596 23.1462 180.204 24.1542C180.812 25.1622 181.116 26.3062 181.116 27.5862C181.116 28.8662 180.812 30.0102 180.204 31.0182C179.596 32.0262 178.756 32.8182 177.684 33.3942C176.612 33.9542 175.396 34.2342 174.036 34.2342ZM174.036 31.1622C174.996 31.1622 175.78 30.8422 176.388 30.2022C177.012 29.5462 177.324 28.6742 177.324 27.5862C177.324 26.4982 177.012 25.6342 176.388 24.9942C175.78 24.3382 174.996 24.0102 174.036 24.0102C173.076 24.0102 172.284 24.3382 171.66 24.9942C171.036 25.6342 170.724 26.4982 170.724 27.5862C170.724 28.6742 171.036 29.5462 171.66 30.2022C172.284 30.8422 173.076 31.1622 174.036 31.1622Z" fill="white"/>
<path d="M18.8 0.0321808H28V50.0877H18.8V0.0321808Z" fill="#04C8B4"/>
<path d="M17.6 2.35916C7.48206 4.94224 0 14.1264 0 25.0599C0 35.9935 7.48206 45.1776 17.6 47.7607V38.4774C12.4222 36.2311 8.8 31.069 8.8 25.0599C8.8 19.0509 12.4222 13.8888 17.6 11.6425V2.35916Z" fill="#04C8B4"/>
<path d="M37.9391 23.7161L28.8 24.8597L37.0728 30.197C35.6798 33.9111 32.8201 36.9069 29.2 38.4774V47.7607C39.3179 45.1776 46.8 35.9935 46.8 25.0599C46.8 24.222 46.7561 23.3943 46.6703 22.5791L37.9385 23.7095C37.9387 23.7117 37.9389 23.7139 37.9391 23.7161Z" fill="#04C8B4"/>
<path d="M43.7802 13.5407L36.0819 17.813C34.5213 15.0817 32.1056 12.903 29.2 11.6425V2.35916C35.4432 3.95302 40.6827 8.06014 43.7802 13.5407Z" fill="#04C8B4"/>
</svg>
