<svg width="50" height="48" viewBox="0 0 50 48" fill="none" xmlns="http://www.w3.org/2000/svg">
<ellipse cx="25.0087" cy="24" rx="24.069" ry="24" fill="#1E1E1E"/>
<rect x="22.2892" y="9" width="5.53995" height="30.0555" fill="#04C8B4"/>
<path d="M21.5666 10.3972C15.4738 11.9482 10.9684 17.4628 10.9684 24.0277C10.9684 30.5927 15.4738 36.1073 21.5666 37.6583V32.0842C18.4486 30.7354 16.2675 27.6359 16.2675 24.0277C16.2675 20.4196 18.4486 17.3201 21.5666 15.9713V10.3972Z" fill="#04C8B4"/>
<path d="M33.8141 23.2208L28.3108 23.9075L33.2925 27.1122C32.4536 29.3423 30.7316 31.1412 28.5517 32.0842V37.6583C34.6444 36.1073 39.1499 30.5927 39.1499 24.0277C39.1499 23.5246 39.1234 23.0276 39.0718 22.5382L33.8138 23.2169C33.8139 23.2182 33.814 23.2195 33.8141 23.2208Z" fill="#04C8B4"/>
<path d="M37.3315 17.1111L32.6958 19.6764C31.756 18.0364 30.3013 16.7282 28.5517 15.9713V10.3972C32.3112 11.3542 35.4663 13.8203 37.3315 17.1111Z" fill="#04C8B4"/>
</svg>
