<svg width="90" height="25" viewBox="0 0 90 25" fill="none" xmlns="http://www.w3.org/2000/svg">
<path d="M37.2649 8.59545H39.197V16.9861H37.2649V8.59545Z" fill="white"/>
<path d="M44.9468 10.4414C45.7419 10.4414 46.3819 10.6811 46.8669 11.1606C47.3599 11.6401 47.6063 12.3513 47.6063 13.2942V16.9861H45.7459V13.5819C45.7459 13.0705 45.6345 12.6909 45.4119 12.4432C45.1893 12.1875 44.8673 12.0596 44.4459 12.0596C43.9768 12.0596 43.6031 12.2074 43.3249 12.5031C43.0466 12.7908 42.9075 13.2223 42.9075 13.7977V16.9861H41.047V10.5373H42.824V11.2925C43.0704 11.0208 43.3765 10.813 43.7423 10.6692C44.108 10.5173 44.5095 10.4414 44.9468 10.4414Z" fill="white"/>
<path d="M53.4311 16.6745C53.2482 16.8103 53.0216 16.9142 52.7513 16.9861C52.4889 17.0501 52.2107 17.082 51.9165 17.082C51.1532 17.082 50.5609 16.8863 50.1395 16.4947C49.7261 16.1031 49.5193 15.5278 49.5193 14.7686V12.1195H48.5295V10.6811H49.5193V9.11088H51.3798V10.6811H52.9779V12.1195H51.3798V14.7446C51.3798 15.0163 51.4474 15.2281 51.5825 15.3799C51.7257 15.5238 51.9244 15.5957 52.1788 15.5957C52.473 15.5957 52.7235 15.5158 52.9302 15.356L53.4311 16.6745Z" fill="white"/>
<path d="M60.5625 13.7857C60.5625 13.8097 60.5506 13.9775 60.5267 14.2891H55.6728C55.7603 14.6887 55.967 15.0043 56.293 15.2361C56.6189 15.4678 57.0244 15.5837 57.5094 15.5837C57.8433 15.5837 58.1375 15.5358 58.3919 15.4399C58.6543 15.336 58.8968 15.1762 59.1194 14.9604L60.1093 16.0392C59.505 16.7344 58.6225 17.082 57.4617 17.082C56.7382 17.082 56.0982 16.9422 55.5416 16.6625C54.9851 16.3748 54.5557 15.9793 54.2536 15.4758C53.9515 14.9724 53.8004 14.401 53.8004 13.7617C53.8004 13.1304 53.9475 12.5631 54.2417 12.0596C54.5438 11.5482 54.9533 11.1526 55.4701 10.8729C55.9948 10.5852 56.5792 10.4414 57.2232 10.4414C57.8513 10.4414 58.4198 10.5773 58.9286 10.849C59.4375 11.1207 59.835 11.5122 60.1212 12.0237C60.4154 12.5271 60.5625 13.1144 60.5625 13.7857ZM57.2351 11.8558C56.8137 11.8558 56.4599 11.9757 56.1737 12.2154C55.8875 12.4552 55.7126 12.7828 55.649 13.1983H58.8094C58.7458 12.7908 58.5708 12.4672 58.2846 12.2274C57.9984 11.9797 57.6486 11.8558 57.2351 11.8558Z" fill="white"/>
<path d="M63.5781 11.3884C63.8007 11.0767 64.0989 10.841 64.4726 10.6811C64.8542 10.5213 65.2915 10.4414 65.7844 10.4414V12.1675C65.5777 12.1515 65.4386 12.1435 65.367 12.1435C64.8343 12.1435 64.4169 12.2953 64.1148 12.599C63.8127 12.8947 63.6616 13.3422 63.6616 13.9415V16.9861H61.8011V10.5373H63.5781V11.3884Z" fill="white"/>
<path d="M72.4765 12.6589H74.2416V16.0632C73.7884 16.4068 73.2636 16.6705 72.6673 16.8543C72.071 17.0381 71.4708 17.13 70.8665 17.13C69.9999 17.13 69.2207 16.9462 68.529 16.5786C67.8373 16.203 67.2927 15.6876 66.8951 15.0323C66.5056 14.369 66.3108 13.6219 66.3108 12.7908C66.3108 11.9597 66.5056 11.2165 66.8951 10.5613C67.2927 9.89801 67.8413 9.38258 68.5409 9.01499C69.2406 8.63941 70.0277 8.45161 70.9023 8.45161C71.6338 8.45161 72.2976 8.57548 72.8939 8.8232C73.4902 9.07093 73.9911 9.43053 74.3966 9.902L73.1563 11.0527C72.56 10.4214 71.8405 10.1058 70.9977 10.1058C70.465 10.1058 69.9919 10.2177 69.5785 10.4414C69.1651 10.6652 68.8431 10.9808 68.6125 11.3884C68.3819 11.7959 68.2666 12.2634 68.2666 12.7908C68.2666 13.3102 68.3819 13.7737 68.6125 14.1813C68.8431 14.5888 69.1611 14.9084 69.5666 15.1402C69.98 15.3639 70.4491 15.4758 70.9738 15.4758C71.5304 15.4758 72.0313 15.356 72.4765 15.1162V12.6589Z" fill="white"/>
<path d="M82.1901 13.7857C82.1901 13.8097 82.1782 13.9775 82.1543 14.2891H77.3004C77.3879 14.6887 77.5946 15.0043 77.9206 15.2361C78.2466 15.4678 78.652 15.5837 79.137 15.5837C79.471 15.5837 79.7651 15.5358 80.0196 15.4399C80.2819 15.336 80.5244 15.1762 80.7471 14.9604L81.7369 16.0392C81.1327 16.7344 80.2501 17.082 79.0893 17.082C78.3658 17.082 77.7258 16.9422 77.1693 16.6625C76.6127 16.3748 76.1834 15.9793 75.8812 15.4758C75.5791 14.9724 75.428 14.401 75.428 13.7617C75.428 13.1304 75.5751 12.5631 75.8693 12.0596C76.1714 11.5482 76.5809 11.1526 77.0977 10.8729C77.6224 10.5852 78.2068 10.4414 78.8508 10.4414C79.4789 10.4414 80.0474 10.5773 80.5562 10.849C81.0651 11.1207 81.4626 11.5122 81.7489 12.0237C82.043 12.5271 82.1901 13.1144 82.1901 13.7857ZM78.8627 11.8558C78.4414 11.8558 78.0876 11.9757 77.8013 12.2154C77.5151 12.4552 77.3402 12.7828 77.2766 13.1983H80.437C80.3734 12.7908 80.1985 12.4672 79.9122 12.2274C79.626 11.9797 79.2762 11.8558 78.8627 11.8558Z" fill="white"/>
<path d="M86.4818 17.082C85.806 17.082 85.1978 16.9422 84.6571 16.6625C84.1244 16.3748 83.707 15.9793 83.4049 15.4758C83.1028 14.9724 82.9517 14.401 82.9517 13.7617C82.9517 13.1224 83.1028 12.5511 83.4049 12.0476C83.707 11.5442 84.1244 11.1526 84.6571 10.8729C85.1978 10.5852 85.806 10.4414 86.4818 10.4414C87.1576 10.4414 87.7619 10.5852 88.2946 10.8729C88.8273 11.1526 89.2447 11.5442 89.5468 12.0476C89.8489 12.5511 90 13.1224 90 13.7617C90 14.401 89.8489 14.9724 89.5468 15.4758C89.2447 15.9793 88.8273 16.3748 88.2946 16.6625C87.7619 16.9422 87.1576 17.082 86.4818 17.082ZM86.4818 15.5477C86.9589 15.5477 87.3484 15.3879 87.6506 15.0683C87.9606 14.7406 88.1157 14.3051 88.1157 13.7617C88.1157 13.2183 87.9606 12.7868 87.6506 12.4672C87.3484 12.1395 86.9589 11.9757 86.4818 11.9757C86.0048 11.9757 85.6112 12.1395 85.3011 12.4672C84.9911 12.7868 84.836 13.2183 84.836 13.7617C84.836 14.3051 84.9911 14.7406 85.3011 15.0683C85.6112 15.3879 86.0048 15.5477 86.4818 15.5477Z" fill="white"/>
<path d="M9.34208 0H13.9137V25H9.34208V0Z" fill="white"/>
<path d="M8.74577 1.1622C3.71798 2.45231 0 7.03927 0 12.5C0 17.9607 3.71798 22.5477 8.74577 23.8378V19.2013C6.17283 18.0794 4.37289 15.5012 4.37289 12.5C4.37289 9.4988 6.17283 6.92061 8.74577 5.79872V1.1622Z" fill="white"/>
<path d="M18.8527 11.8288L14.3113 12.4L18.4222 15.0657C17.73 16.9207 16.3089 18.4169 14.51 19.2013V23.8378C19.5378 22.5477 23.2558 17.9607 23.2558 12.5C23.2558 12.0815 23.234 11.6681 23.1914 11.261L18.8524 11.8255C18.8525 11.8266 18.8526 11.8277 18.8527 11.8288Z" fill="white"/>
<path d="M21.7552 6.74678L17.9298 8.88055C17.1543 7.51642 15.9539 6.42828 14.51 5.79872V1.1622C17.6124 1.95824 20.216 4.00952 21.7552 6.74678Z" fill="white"/>
</svg>
